<svg width="88" height="58" viewBox="0 0 88 58" fill="none" xmlns="http://www.w3.org/2000/svg">
<path d="M35.7778 12.6763C35.7778 12.6763 28.9759 4.17392 20.7708 4.17392C13.6185 4.17392 7.63725 7.66376 5.16922 14.3768C2.08632 22.7623 23.8745 29.6811 20.7708 29.6811C20.7708 29.6811 4.34211 31.3816 5.16936 41.5844C5.99662 51.7873 13.6716 55.1883 20.7708 53.4878C29.4353 51.4125 34.0775 44.9854 34.0775 44.9854" stroke="#6C5848" stroke-width="8" stroke-linecap="square"/>
<path d="M43.5841 19.4782V36.483" stroke="#6C5848" stroke-width="8"/>
<path d="M52.483 12.6763C52.483 12.6763 59.2849 4.1739 67.49 4.1739C74.6424 4.1739 80.6236 7.66373 83.0916 14.3768C86.1745 22.7623 64.3864 29.6811 67.49 29.6811C67.49 29.6811 83.9188 31.3815 83.0915 41.5844C82.2642 51.7873 74.5892 55.1882 67.49 53.4878C58.8256 51.4124 54.1834 44.9854 54.1834 44.9854" stroke="#6C5848" stroke-width="8" stroke-linecap="square"/>
</svg>
